<svg t="1678630209596" class="icon" viewBox="0 0 1024 1024" version="1.1" xmlns="http://www.w3.org/2000/svg"
  p-id="11263" width="200" height="200">
  <path
    d="M92.39571253 547.02936696a13.2560719 13.2560719 0 0 1-13.25607189-13.25607189V344.7682219a13.2560719 13.2560719 0 0 1 26.51214381 0V533.77329507a13.2560719 13.2560719 0 0 1-13.25607192 13.25607189zM44.50152478 513.67709007a13.2560719 13.2560719 0 0 1-13.25607193-13.25607192v-122.30051933a13.2560719 13.2560719 0 0 1 26.51214381 0v122.30051933a13.2560719 13.2560719 0 0 1-13.25607189 13.25607192zM931.38575923 547.02936696a13.2560719 13.2560719 0 0 1-13.25607189-13.25607189V344.7682219a13.2560719 13.2560719 0 1 1 26.51214381 0V533.77329507a13.2560719 13.2560719 0 0 1-13.25607192 13.25607189zM979.26669094 513.67709007a13.2560719 13.2560719 0 0 1-13.25607188-13.25607192v-122.30051933a13.2560719 13.2560719 0 1 1 26.51214379 0v122.30051933a13.2560719 13.2560719 0 0 1-13.25607191 13.25607192z"
    fill="#606060" p-id="11264"></path>
  <path
    d="M796.88965374 656.11358263H240.13463387a53.02428761 53.02428761 0 0 1-53.0242876-53.02428759v-108.19605887a53.02428761 53.02428761 0 0 1 53.0242876-53.02428758h556.75501987a53.02428761 53.02428761 0 0 1 53.02428759 53.02428758v108.19605887a53.02428761 53.02428761 0 0 1-53.02428759 53.02428759z"
    fill="#F9ABA0" p-id="11265"></path>
  <path
    d="M373.59676577 436.30139837m-84.85211623 0a84.85211625 84.85211625 0 1 0 169.70423248 0 84.85211625 84.85211625 0 1 0-169.70423248 0Z"
    fill="#FFFFFF" p-id="11266"></path>
  <path
    d="M373.59676577 534.40958653c-54.09802943 0-98.10818814-44.01015871-98.10818812-98.10818816 0-54.09802943 44.01015871-98.10818814 98.10818812-98.10818813s98.10818814 44.01015871 98.10818815 98.10818813c0 54.09802943-44.01015871 98.10818814-98.10818815 98.10818816z m0-169.70423249c-39.47658211 0-71.59604434 32.11946222-71.59604433 71.59604433s32.11946222 71.59604434 71.59604433 71.59604434 71.59604434-32.11946222 71.59604435-71.59604434-32.11946222-71.59604434-71.59604435-71.59604433z"
    fill="#606060" p-id="11267"></path>
  <path
    d="M373.59676577 436.30139837m-36.24210058 0a36.24210058 36.24210058 0 1 0 72.48420117 0 36.24210058 36.24210058 0 1 0-72.48420117 0Z"
    fill="#DADADA" p-id="11268"></path>
  <path
    d="M373.59676577 479.17153491a42.92316081 42.92316081 0 0 1-42.87013652-42.87013654 42.90990475 42.90990475 0 0 1 42.87013652-42.85688045 42.90990475 42.90990475 0 0 1 42.85688047 42.85688045 42.89664867 42.89664867 0 0 1-42.85688047 42.87013654z m0-72.47094509a29.64057678 29.64057678 0 0 0-29.61406461 29.60080855 29.64057678 29.64057678 0 0 0 29.61406461 29.61406464 29.62732069 29.62732069 0 0 0 0-59.21487319z"
    fill="#606060" p-id="11269"></path>
  <path
    d="M659.01324988 436.30139837m-84.85211624 0a84.85211625 84.85211625 0 1 0 169.70423249 0 84.85211625 84.85211625 0 1 0-169.70423249 0Z"
    fill="#FFFFFF" p-id="11270"></path>
  <path
    d="M659.01324988 534.40958653c-54.09802943 0-98.09493207-44.01015871-98.09493207-98.10818816 0-54.09802943 43.99690263-98.10818814 98.09493207-98.10818813S757.12143804 382.20336895 757.12143804 436.30139837c0 54.09802943-44.01015871 98.10818814-98.10818816 98.10818815z m0-169.70423249c-39.47658211 0-71.58278827 32.11946222-71.58278827 71.59604433s32.11946222 71.59604434 71.58278827 71.59604434c39.4898382 0 71.59604434-32.11946222 71.59604434-71.59604434s-32.11946222-71.59604434-71.59604434-71.59604433z"
    fill="#606060" p-id="11271"></path>
  <path
    d="M659.01324988 436.30139837m-36.24210057 0a36.24210058 36.24210058 0 1 0 72.48420116 0 36.24210058 36.24210058 0 1 0-72.48420116 0Z"
    fill="#DADADA" p-id="11272"></path>
  <path
    d="M659.01324988 479.17153491a42.90990475 42.90990475 0 0 1-42.85688044-42.87013654c0-23.6355762 19.22130427-42.85688046 42.85688044-42.85688045s42.87013652 19.23456033 42.87013653 42.85688045a42.92316081 42.92316081 0 0 1-42.87013653 42.87013654z m0-72.47094509a29.64057678 29.64057678 0 0 0-29.60080856 29.60080855 29.64057678 29.64057678 0 0 0 29.60080856 29.61406464 29.64057678 29.64057678 0 0 0 29.61406464-29.61406464 29.64057678 29.64057678 0 0 0-29.61406464-29.60080855z"
    fill="#606060" p-id="11273"></path>
  <path
    d="M697.77400412 826.29503371H337.01000733c-17.32568597 0-31.19153718 12.34140294-30.5685018 27.20145955l3.28750584 77.56127669 51.19494966 8.64295888h357.0390406l12.65954867-22.53532225v-62.68796401c-0.01325607-15.57588448-14.71423981-28.18240886-32.84854618-28.18240886z"
    fill="#F9ABA0" p-id="11274"></path>
  <path
    d="M796.88965374 669.38291062H235.72036194c-36.54699023 0-66.2803595-29.73336928-66.28035952-66.28035953V275.43896587c0-36.54699023 29.73336928-66.2803595 66.28035952-66.28035953H796.88965374c36.54699023 0 66.2803595 29.73336928 66.2803595 66.28035953V603.10255109c0 36.53373417-29.73336928 66.2803595-66.2803595 66.28035953zM235.72036194 235.67075016c-21.92554292 0-39.7682157 17.84267278-39.7682157 39.76821571V603.10255109c0 21.92554292 17.84267278 39.7682157 39.7682157 39.76821572H796.88965374c21.92554292 0 39.7682157-17.84267278 39.7682157-39.76821572V275.43896587c0-21.92554292-17.84267278-39.7682157-39.7682157-39.76821571H235.72036194z"
    fill="#606060" p-id="11275"></path>
  <path
    d="M716.41204122 952.94354466h-400.33337142a29.97197857 29.97197857 0 0 1-29.93221035-29.94546642V772.87306394a29.95872251 29.95872251 0 0 1 29.93221035-29.93221035h95.16534018v-100.08334284H621.24670104v100.08334284h95.16534018a29.97197857 29.97197857 0 0 1 29.94546643 29.93221035v150.1250143a29.98523463 29.98523463 0 0 1-29.94546643 29.94546642z m-400.33337142-183.49054725a3.45983476 3.45983476 0 0 0-3.42006656 3.42006653v150.1250143c0 1.86910614 1.56421649 3.43332262 3.42006656 3.4333226h400.33337142a3.3537862 3.3537862 0 0 0 3.43332262-3.4333226V772.87306394a3.38029834 3.38029834 0 0 0-3.43332261-3.42006653H594.73455724v-100.08334286H437.75615379v100.08334286h-121.67748399zM668.74320667 229.77179816h-304.88965374v-92.79250332c0-14.62144731 11.8906965-26.51214381 26.51214381-26.51214379h251.86536612c14.62144731 0 26.51214381 11.8906965 26.51214381 26.51214379v92.79250332z m-278.37750993-26.5121438h251.86536612v-66.28035952h-251.86536612v66.28035952z"
    fill="#606060" p-id="11276"></path>
  <path
    d="M195.83284158 567.45697378l-4.18891871-12.58001224 78.51571386-26.16748594L372.69535289 451.74472213V304.31069046l94.79417016-27.09541097 50.71773111-101.40895004-10.16740715-50.78401147 12.99095046-2.61144615 11.05556397 55.26456375-55.34410018 110.68820038L385.95142481 314.30576866v144.25257444l-3.97682159 2.92959189-106.60533023 79.45689497z"
    fill="#606060" p-id="11277"></path>
  <path
    d="M192.88999362 578.59207418l-4.13589443-12.58001226 78.90013995-25.9023645 103.63597013-77.98547098 1.85585007-151.7687672 95.15208409-26.65796058 52.05659437-103.84806729-9.95531-54.9596741 13.04397476-2.34632474 10.73741823 59.3076657-56.6564513 113.03452511-91.24154291 25.55770662-1.82933791 148.36195672-111.62938149 83.55302118z"
    fill="#606060" p-id="11278"></path>
</svg>